<svg width="208" height="205" viewBox="0 0 208 205" fill="none" xmlns="http://www.w3.org/2000/svg">
<path d="M102.54 34.6359C107.225 34.6359 111.241 32.9627 114.588 29.6162C118.101 26.1024 119.858 22.003 119.858 17.318C119.858 12.6329 118.185 8.61715 114.839 5.27069C111.492 1.7569 107.393 0 102.54 0C97.6879 0 93.5885 1.7569 90.242 5.27069C86.8955 8.61715 85.2223 12.6329 85.2223 17.318C85.2223 22.003 86.8955 26.1024 90.242 29.6162C93.7558 32.9627 97.8552 34.6359 102.54 34.6359Z" fill="black"/>
<path fill-rule="evenodd" clip-rule="evenodd" d="M81.8964 123.447C81.8949 123.449 81.8933 123.452 81.8918 123.454L81.8964 123.447Z" fill="black"/>
<path d="M197.878 85.6761L197.878 85.675L207.838 100.731L202.017 104.743L192.011 89.6176L191.36 90.0552L201.37 105.187L195.549 109.198L185.493 93.9978L184.841 94.4363L194.903 109.645L189.082 113.657L178.974 98.379L178.323 98.8169L188.435 114.103L182.614 118.114L172.456 102.76C156.199 78.5696 134.329 72.6983 118.987 72.8582L118.987 113.043C134.059 126.92 152.5 156.676 155.355 203.11L124.625 205C122.766 174.757 113.287 155.037 105.285 143.95C101.373 149.892 96.1155 157.39 89.3316 163.959C81.5767 171.469 71.1631 178.429 57.5767 180.49C43.9103 182.563 29.1208 179.364 13.2483 170.422L28.3594 143.599C39.8106 150.05 47.6758 150.853 52.9601 150.052C58.3245 149.238 63.159 146.447 67.9141 141.842C72.8014 137.109 76.8772 131.185 80.853 125.06C81.1905 124.54 81.5367 124.004 81.8888 123.459L81.8946 123.45C83.444 121.05 85.1086 118.472 86.6422 116.329C87.07 115.731 87.5908 115.015 88.1996 114.236L88.1996 76.5901C64.3269 76.7214 32.4034 67.4125 9.30205 33.0378L0 18.6659L5.86082 14.7128L15.1694 29.0948L15.8216 28.6566L6.51215 14.2733L12.373 10.3202L21.6889 24.7136L22.3403 24.2758L13.0242 9.88215L18.885 5.92903L28.2077 20.3328L28.8599 19.8946L19.5363 5.48952L25.3972 1.53642L34.7272 15.9516C55.7837 47.2832 86.2319 47.9027 99.7817 44.4399C122.355 38.671 167.679 40.7414 197.878 85.6761Z" fill="black"/>
</svg>
