<svg width="172" height="206" viewBox="0 0 172 206" fill="none" xmlns="http://www.w3.org/2000/svg">
<path d="M85.2812 44.4442C89.7152 44.4442 93.5158 42.8606 96.683 39.6934C100.009 36.3679 101.671 32.4881 101.671 28.054C101.671 23.62 100.088 19.8194 96.9206 16.6522C93.7534 13.3267 89.8736 11.6639 85.2812 11.6639C80.6888 11.6639 76.809 13.3267 73.6418 16.6522C70.4746 19.8194 68.8911 23.62 68.8911 28.054C68.8911 32.4881 70.4746 36.3679 73.6418 39.6934C76.9674 42.8606 80.8471 44.4442 85.2812 44.4442Z" fill="black"/>
<path d="M144.897 0L139.172 15.1717C127.486 45.6512 99.8097 53.0881 85.9134 53.0882C72.0169 53.088 44.3378 45.652 32.6519 15.1726L26.9267 2.35163e-05L20.7128 2.48043L26.4057 17.5675L25.7119 17.8335L20.0225 2.75592L13.8086 5.2363L19.4657 20.2284L18.7718 20.4945L13.1183 5.51162L6.90436 7.99201L12.5256 22.8893L11.8316 23.1554L6.2139 8.26749L0 10.7479L6.17211 27.1049C20.4212 62.5306 49.5079 76.5641 71.3444 80.7543L71.3444 118.47C57.0796 131.603 39.6272 159.765 36.9251 203.712L66.0084 205.5C67.8942 174.828 78.0596 155.592 85.9134 145.592C93.7672 155.592 103.933 174.828 105.819 205.5L134.902 203.712C132.2 159.764 114.747 131.602 100.482 118.469L100.482 80.7543C122.319 76.5642 151.314 62.4945 165.563 27.0693L171.824 10.7479L165.61 8.26748L159.993 23.1545L159.299 22.8884L164.92 7.99199L158.706 5.5116L153.053 20.4936L152.359 20.2275L158.016 5.23628L151.802 2.75588L146.113 17.8326L145.419 17.5665L151.111 2.4804L144.897 0Z" fill="black"/>
</svg>
