<svg width="208" height="175" viewBox="0 0 208 175" fill="none" xmlns="http://www.w3.org/2000/svg">
<path d="M103.455 33.5821C108.008 33.5821 111.911 31.9598 115.163 28.7151C118.578 25.3082 120.286 21.3335 120.286 16.791C120.286 12.2485 118.659 8.35497 115.407 5.11032C112.155 1.70344 108.171 0 103.455 0C98.7386 0 94.7545 1.70344 91.5021 5.11032C88.2497 8.35497 86.6235 12.2485 86.6235 16.791C86.6235 21.3335 88.2497 25.3082 91.5021 28.7151C94.9171 31.9598 98.9013 33.5821 103.455 33.5821Z" fill="black"/>
<path d="M186.533 70.516L186.864 71.2008L201.836 64.5318L204.756 70.7365L189.853 77.3746L190.187 78.0631L205.08 71.429L208 77.6336L193.176 84.2368C178.447 91.3338 166.305 94.9214 155.534 94.8832C144.061 94.8426 135.801 90.8159 129.339 86.194C125.478 83.4319 122.685 81.0995 120.387 79.18C119.928 78.7967 119.489 78.4296 119.065 78.0791L119.065 103.349C125.873 104.796 132.587 107.069 138.62 109.744C148.744 114.234 159.582 121.021 165.763 129.661C168.944 134.109 172.149 140.875 170.746 148.884C169.281 157.249 163.551 162.829 157.666 166.212C146.841 172.434 129.256 175 105.351 175L105.351 145.149C116.715 145.149 125.306 144.495 131.628 143.473C133.473 143.175 135.057 142.853 136.412 142.532C133.706 140.632 130.301 138.722 126.466 137.021C118.557 133.514 110.237 131.513 104.104 131.513C97.97 131.513 89.6499 133.514 81.7411 137.021C77.9058 138.722 74.5008 140.632 71.7944 142.531C73.1494 142.853 74.7346 143.175 76.58 143.473C82.9023 144.495 91.4927 145.149 102.857 145.149L102.857 175C78.9519 175 61.3659 172.434 50.5415 166.212C44.6561 162.829 38.9269 157.249 37.4617 148.884C36.0587 140.875 39.2638 134.109 42.4453 129.661C48.6258 121.021 59.4637 114.234 69.5868 109.744C75.6199 107.069 82.3347 104.796 89.1427 103.349V78.0791C88.7175 78.4305 88.277 78.7984 87.8168 79.1829C85.5194 81.1018 82.728 83.4334 78.8687 86.194C72.4074 90.816 64.1469 94.8426 52.6732 94.8832C41.9023 94.9214 29.7379 91.3814 15.0092 84.2845L0 77.5989L2.91969 71.3943L17.9981 78.1107L18.3314 77.4222L3.244 70.7017L6.16368 64.4971L21.3203 71.2484L21.6519 70.5635L6.48784 63.809L9.4075 57.6043L24.6408 64.3897L24.9724 63.7048L9.73176 56.9162L12.6514 50.7115L27.9612 57.531C40.7232 63.6803 48.221 65.0479 52.5673 65.0325C56.2108 65.0196 58.5354 64.007 61.4328 61.9345C62.3438 61.2828 63.4679 60.3076 64.82 59.1348C71.5884 53.2635 84.0678 42.4382 104.104 42.4382C124.14 42.4381 136.619 53.2635 143.388 59.1347C144.74 60.3075 145.864 61.2828 146.775 61.9345C149.673 64.0071 151.997 65.0196 155.641 65.0325C159.843 65.0473 166.955 63.6951 178.955 58.0483L195.348 50.7463L198.268 56.9509L183.212 63.6573L183.544 64.3422L198.592 57.639L201.512 63.8437L186.533 70.516Z" fill="black"/>
</svg>
