<svg width="215" height="206" viewBox="0 0 215 206" fill="none" xmlns="http://www.w3.org/2000/svg">
<path d="M106.806 34.7527C111.507 34.7527 115.536 33.0738 118.894 29.716C122.42 26.1904 124.182 22.0772 124.182 17.3763C124.182 12.6755 122.504 8.6462 119.146 5.28845C115.788 1.76282 111.675 0 106.806 0C101.937 0 97.8242 1.76282 94.4664 5.28845C91.1087 8.6462 89.4298 12.6755 89.4298 17.3763C89.4298 22.0772 91.1087 26.1904 94.4664 29.716C97.992 33.0738 102.105 34.7527 106.806 34.7527Z" fill="black"/>
<path fill-rule="evenodd" clip-rule="evenodd" d="M90.6779 81.9294C90.6808 81.927 90.6836 81.9246 90.6865 81.9222C90.7411 81.8764 90.7989 81.8281 90.8529 81.7828C90.7977 81.829 90.7423 81.8755 90.6865 81.9222L90.6779 81.9294Z" fill="black"/>
<path fill-rule="evenodd" clip-rule="evenodd" d="M90.8511 81.7844C91.1102 81.5675 91.3648 81.3545 91.6119 81.1486C91.3637 81.3554 91.11 81.5676 90.8511 81.7844Z" fill="black"/>
<path d="M90.8511 81.7844L90.6865 81.9222L90.6779 81.9294L90.6631 81.9417C88.2914 83.9275 85.4078 86.3418 81.4238 89.1985C74.7531 93.9816 66.225 98.1485 54.3796 98.1906C43.2597 98.23 30.6757 94.6196 15.4699 87.2753L0 80.3038L3.01426 73.8828L18.5812 80.8334L18.9253 80.1209L3.34907 73.1662L6.36333 66.7453L22.011 73.7319L22.3533 73.0231L6.698 66.0331L9.71227 59.6122L25.439 66.6341L25.7813 65.9254L10.047 58.9001L13.0613 52.4792L28.8671 59.5364C42.0424 65.9 49.7832 67.3153 54.2702 67.2993C58.0318 67.2859 60.4317 66.2381 63.423 64.0933C64.3634 63.419 65.5239 62.4099 66.9197 61.1962C73.9073 55.1203 86.7913 43.9174 107.476 43.9175C128.161 43.9174 141.045 55.1201 148.033 61.1959C149.429 62.4098 150.59 63.4189 151.53 64.0933C154.521 66.2381 156.921 67.286 160.683 67.2993C165.021 67.3147 172.363 65.9155 184.753 60.072L201.677 52.5154L204.691 58.9363L189.148 65.8764L189.49 66.5852L205.026 59.6484L208.04 66.0693L192.576 72.9741L192.918 73.6829L208.375 66.7815L211.389 73.2024L196.004 80.0718L196.348 80.7843L211.724 73.919L214.738 80.34L199.434 87.1733C184.228 94.5177 171.693 98.2301 160.573 98.1906C148.728 98.1485 140.2 93.9815 133.529 89.1985C129.543 86.3399 126.66 83.9262 124.287 81.9397C123.814 81.5435 123.359 81.163 122.922 80.8007L122.922 113.233C138.045 127.156 156.547 157.012 159.412 203.604L128.58 205.5C126.58 172.983 115.803 152.59 107.476 141.988C99.1499 152.59 88.3727 172.983 86.3734 205.5L55.5403 203.604C58.4049 157.013 76.9074 127.157 92.0306 113.233L92.0306 80.8007L91.6119 81.1486C91.3648 81.3545 91.1102 81.5675 90.8511 81.7844Z" fill="black"/>
</svg>
