<svg width="183" height="206" viewBox="0 0 183 206" fill="none" xmlns="http://www.w3.org/2000/svg">
<path d="M90.5507 34.7527C95.2588 34.7527 99.2943 33.0738 102.657 29.716C106.188 26.1904 107.954 22.0772 107.954 17.3763C107.954 12.6755 106.272 8.6462 102.91 5.28846C99.5466 1.76282 95.427 0 90.5507 0C85.6744 0 81.5549 1.76282 78.1919 5.28846C74.829 8.6462 73.1475 12.6755 73.1475 17.3763C73.1475 22.0772 74.829 26.1904 78.1919 29.716C81.723 33.0738 85.8426 34.7527 90.5507 34.7527Z" fill="black"/>
<path d="M169.899 110.707L169.155 110.971L175.113 126.735L168.515 129.365L162.461 113.346L161.717 113.61L167.782 129.657L161.184 132.287L155.023 115.985L154.279 116.249L160.451 132.579L153.853 135.208L147.585 118.625C138.595 93.3701 121.059 81.9475 106.691 77.3918L106.691 113.233C121.838 127.157 140.369 157.013 143.238 203.604L112.357 205.5C110.355 172.983 99.5611 152.59 91.2219 141.988C82.8827 152.59 72.0889 172.983 70.0865 205.5L39.2057 203.604C42.0748 157.013 60.6058 127.157 75.7524 113.233V77.3918C61.3846 81.9475 43.8489 93.3702 34.8585 118.625L28.5913 135.208L21.9933 132.579L28.1645 116.249L27.4206 115.985L21.2601 132.287L14.6621 129.657L20.7266 113.61L19.9829 113.346L13.9291 129.365L7.33111 126.735L13.2889 110.971L12.5451 110.707L6.59797 126.443L0 123.814L6.55478 106.473C25.1631 56.8314 68.0952 43.9176 91.2219 43.9175L92.3345 43.9273C95.2554 43.9783 98.4655 44.2305 101.883 44.7281C125.802 48.2117 159.864 63.724 175.889 106.473L182.444 123.814L175.846 126.443L169.899 110.707Z" fill="black"/>
</svg>
