<svg width="197" height="208" viewBox="0 0 197 208" fill="none" xmlns="http://www.w3.org/2000/svg">
<path d="M98.1753 35.1755C102.943 35.1755 107.03 33.4762 110.435 30.0776C114.011 26.509 115.799 22.3458 115.799 17.5877C115.799 12.8297 114.096 8.75139 110.691 5.35279C107.285 1.78427 103.113 0 98.1753 0C93.2373 0 89.0656 1.78427 85.66 5.35279C82.2545 8.75139 80.5518 12.8297 80.5518 17.5877C80.5518 22.3458 82.2545 26.509 85.66 30.0776C89.2358 33.4762 93.4076 35.1755 98.1753 35.1755Z" fill="black"/>
<path d="M180.462 124.761V125.562L196.907 125.662L197 132.841L178.202 132.726C159.86 132.426 145.827 128.205 134.991 121C124.576 114.076 118.595 105.127 114.523 97.3729L114.523 114.61C129.862 128.702 148.627 158.922 151.533 206.081L120.261 208C118.234 175.087 107.303 154.446 98.8577 143.715C90.4129 154.446 79.4825 175.087 77.4547 208L46.1828 206.081C49.0883 158.923 67.854 128.703 83.1924 114.611V97.3744C79.1201 105.129 73.14 114.076 62.7256 121C51.7487 128.298 37.4919 132.519 18.7981 132.726L0 132.841L0.0925141 125.662L17.2539 125.557L17.2539 124.757L0.100977 124.861L0.193491 117.683L17.2539 117.578L17.2539 116.783L0.205002 116.887L0.297516 109.708L17.2539 109.604L17.2539 108.808L0.309019 108.911L0.401534 101.733L17.2539 101.63C32.456 101.63 40.6201 98.1264 45.3545 94.979C50.0829 91.8353 53.1272 87.5176 56.1474 81.4851C57.1726 79.4373 57.9437 77.7419 58.8041 75.8502C59.4106 74.5168 60.0614 73.0859 60.8768 71.3653C62.5635 67.8063 64.7244 63.5614 67.6646 59.6203C70.7136 55.5335 74.7723 51.5284 80.3553 48.6425C85.9467 45.7522 92.1621 44.4517 98.8577 44.4517C105.553 44.4516 111.769 45.7523 117.36 48.6425C122.943 51.5284 127.003 55.5335 130.052 59.6203C132.992 63.5613 135.152 67.8064 136.839 71.3653C137.654 73.0859 138.305 74.5169 138.911 75.8503C139.772 77.742 140.543 79.4373 141.568 81.4851C144.588 87.5176 147.633 91.8353 152.361 94.979C157.095 98.1265 165.26 101.634 180.462 101.634L196.598 101.733L196.691 108.911L180.462 108.812V109.609L196.703 109.708L196.795 116.887L180.462 116.787V117.583L196.807 117.683L196.899 124.861L180.462 124.761Z" fill="black"/>
</svg>
