<svg width="208" height="205" viewBox="0 0 208 205" fill="none" xmlns="http://www.w3.org/2000/svg">
<path d="M104.529 34.6355C99.8441 34.6355 95.8283 32.9623 92.4819 29.6159C88.9682 26.1021 87.2113 22.0028 87.2113 17.3178C87.2113 12.6328 88.8845 8.61705 92.2309 5.27063C95.5773 1.75688 99.6767 0 104.529 0C109.381 0 113.481 1.75688 116.827 5.27063C120.174 8.61705 121.847 12.6328 121.847 17.3178C121.847 22.0028 120.174 26.1021 116.827 29.6159C113.313 32.9623 109.214 34.6355 104.529 34.6355Z" fill="black"/>
<path fill-rule="evenodd" clip-rule="evenodd" d="M172.41 102.709C156.154 78.5193 134.199 72.6997 118.858 72.8596V114.237C119.466 115.016 119.987 115.732 120.415 116.33C121.949 118.473 123.611 121.048 125.161 123.448C125.515 123.997 125.864 124.537 126.204 125.061C130.18 131.185 134.256 137.11 139.143 141.843C143.898 146.448 148.732 149.238 154.097 150.052C159.381 150.854 167.246 150.051 178.697 143.599L193.808 170.422C177.936 179.364 163.146 182.563 149.48 180.491C135.894 178.43 125.48 171.469 117.726 163.96C110.942 157.39 105.685 149.893 101.772 143.951C93.7702 155.038 84.2919 174.757 82.4324 205L51.7032 203.11C54.5582 156.676 72.9983 126.921 88.0705 113.044V76.5915C64.1981 76.7227 32.3639 67.3541 9.26285 32.9799L0 18.6686L5.86074 14.7155L15.1301 29.0369L15.7823 28.5987L6.51211 14.276L12.3728 10.323L21.6496 24.6557L22.3009 24.218L13.024 9.88492L18.8848 5.93186L28.1683 20.275L28.8204 19.8368L19.5361 5.49234L25.3969 1.53927L35.434 17.0468C56.4546 47.2597 86.2681 47.8621 99.6525 44.4416C102.468 43.7221 105.639 43.1236 109.091 42.7144C133.256 39.8497 171.211 46.2577 197.634 85.326C197.663 85.3688 197.692 85.4111 197.722 85.4535L197.73 85.4655L197.835 85.6172L207.826 100.732L202.005 104.744L191.963 89.5639L191.311 90.0016L201.358 105.188L195.537 109.2L185.445 93.9442L184.793 94.3823L194.891 109.646L189.07 113.658L178.926 98.3249L178.275 98.763L188.423 114.104L182.602 118.115L172.41 102.709Z" fill="black"/>
</svg>
