<svg width="195" height="181" viewBox="0 0 195 181" fill="none" xmlns="http://www.w3.org/2000/svg">
<path d="M88.3579 49.7713C92.952 49.7713 96.8898 48.1319 100.171 44.8532C103.617 41.4105 105.34 37.3941 105.34 32.8038C105.34 28.2136 103.699 24.2791 100.417 21.0004C97.1359 17.5577 93.116 15.8363 88.3579 15.8363C83.5997 15.8363 79.5799 17.5577 76.2984 21.0004C73.0169 24.2791 71.3761 28.2136 71.3761 32.8038C71.3761 37.3941 73.0169 41.4105 76.2984 44.8532C79.744 48.1319 83.7638 49.7713 88.3579 49.7713Z" fill="black"/>
<path d="M19.4991 126.515L20.2247 126.773L14.3071 142.443L20.7453 145.01L26.7566 129.093L27.4824 129.351L21.4607 145.296L27.8989 147.863L34.0142 131.67C42.7869 107.01 59.8981 95.8559 73.9179 91.4074L73.9179 127.544C71.8922 130.344 70.2531 133.959 70.145 138.444C69.9107 148.163 76.8754 153.703 80.1181 155.835C83.9364 158.346 88.5556 160.133 92.8271 161.505C97.3097 162.945 102.462 164.249 107.937 165.47C117.558 167.615 129.07 169.693 141.084 171.847L145.933 172.716C159.849 175.213 174.419 177.873 188.41 181L195 151.563C185.019 149.333 174.827 147.345 164.961 145.517L179.601 144.618C178.714 130.208 174.668 117.843 166.929 108.683C158.975 99.2699 148.259 94.614 137.055 93.9282C125.982 93.2505 114.653 96.3588 104.108 102.073L104.108 87.2701C127.376 82.5251 157.758 66.2629 172.111 25.9141L177.696 11.1266L171.257 8.55887L165.579 23.5944L164.853 23.3366L170.542 8.27368L164.104 5.7059L158.321 21.0168L157.596 20.7591L163.388 5.42072L156.95 2.85295L151.064 18.4394L150.338 18.1816L156.235 2.56777L149.797 0L143.402 16.9333C130.801 50.8704 102.584 58.7206 89.0128 58.7207C66.4462 58.7208 24.5526 71.3298 6.39492 119.803L0 136.737L6.43819 139.304L12.2415 123.938L12.9672 124.196L7.15359 139.59L13.5918 142.157L19.4991 126.515ZM109.289 134.803C118.919 126.91 128.606 123.632 135.209 124.036C139.011 124.269 141.742 125.634 143.861 128.142C145.881 130.532 148.137 134.941 149.111 142.638L147.918 142.425L145.552 142C133.798 139.892 123.252 137.978 114.512 136.03C114.396 136.004 114.28 135.978 114.164 135.952C112.432 135.563 110.806 135.18 109.289 134.803Z" fill="black"/>
</svg>
