<svg width="176" height="151" viewBox="0 0 176 151" fill="none" xmlns="http://www.w3.org/2000/svg">
<path d="M87.3524 33.5121C91.8943 33.5121 95.7873 31.8931 99.0314 28.6553C102.438 25.2555 104.141 21.2891 104.141 16.756C104.141 12.223 102.519 8.33755 99.2747 5.09967C96.0306 1.69989 92.0565 0 87.3524 0C82.6484 0 78.6743 1.69989 75.4302 5.09967C72.186 8.33755 70.5639 12.223 70.5639 16.756C70.5639 21.2891 72.186 25.2555 75.4302 28.6553C78.8365 31.8931 82.8106 33.5121 87.3524 33.5121Z" fill="black"/>
<path d="M149.548 111.845L148.83 112.1L154.783 127.846L148.419 130.382L142.373 114.39C139.882 107.398 136.564 101.557 133.001 96.5981C133.899 98.4351 134.534 100.229 134.994 101.783C137.918 111.664 138.374 127.585 136.89 151L107.103 149.119C107.828 137.686 107.971 129.21 107.787 123.026C105.753 124.882 103.028 127.192 100.016 128.875C97.9023 130.056 93.3643 132.155 87.9999 131.683C82.6355 132.155 78.0976 130.056 75.9842 128.875C72.9715 127.192 70.2458 124.882 68.2122 123.026C68.028 129.21 68.172 137.686 68.8964 149.119L39.1099 151C37.6263 127.585 38.0815 111.664 41.0059 101.783C41.466 100.229 42.1002 98.435 42.9981 96.5981C39.435 101.557 36.1175 107.398 33.6272 114.39L27.5814 130.382L21.2165 127.846L27.1697 112.1L26.4521 111.845L20.5092 127.564L14.1443 125.029L19.9945 109.554L19.2771 109.3L13.4371 124.747L7.07218 122.211L12.8195 107.009L12.102 106.755L6.36493 121.929L0 119.394L6.32326 102.672C24.2744 54.8027 65.69 42.3498 87.9999 42.3497L89.0733 42.3592C111.615 42.7528 152.01 55.5602 169.677 102.672L176 119.394L169.635 121.929L163.898 106.755L163.18 107.009L168.928 122.211L162.563 124.747L156.723 109.3L156.005 109.554L161.856 125.029L155.491 127.564L149.548 111.845ZM73.0768 74.6291C66.0904 76.8435 58.3682 80.7544 51.3166 87.2085C51.8198 86.9081 52.3462 86.6246 52.8963 86.3605C60.864 82.5364 68.2065 85.3561 71.8082 87.2616C72.2379 87.489 72.6605 87.7287 73.0768 87.9758L73.0768 74.6291ZM102.923 87.9758C103.339 87.7287 103.762 87.489 104.192 87.2616C107.793 85.356 115.136 82.5364 123.104 86.3605C123.653 86.6245 124.179 86.9082 124.683 87.2085C117.631 80.7546 109.909 76.8435 102.923 74.6291L102.923 87.9758Z" fill="black"/>
</svg>
