<svg width="169" height="206" viewBox="0 0 169 206" fill="none" xmlns="http://www.w3.org/2000/svg">
<path d="M83.7037 46.6489C88.0721 46.6489 91.8165 45.0888 94.9368 41.9685C98.2131 38.6921 99.8513 34.8697 99.8513 30.5013C99.8513 26.1329 98.2912 22.3885 95.1709 19.2682C92.0505 15.9918 88.2281 14.3537 83.7037 14.3537C79.1792 14.3537 75.3568 15.9918 72.2365 19.2682C69.1162 22.3885 67.556 26.1329 67.556 30.5013C67.556 34.8697 69.1162 38.6921 72.2365 41.9685C75.5128 45.0888 79.3352 46.6489 83.7037 46.6489Z" fill="black"/>
<path d="M136.928 14.6057L142.439 0L148.561 2.4437L143.139 16.8133L143.829 17.0587L149.242 2.71511L155.363 5.1588L150.04 19.2663L150.73 19.5116L156.044 5.43005L162.166 7.87374L156.941 21.7192L157.631 21.9646L162.846 8.14515L168.968 10.5888L163.842 24.1722C150.194 62.5714 121.164 77.9973 99.0389 82.513V119.758C113.093 132.696 130.287 160.442 132.949 203.739L104.296 205.5C102.438 175.282 92.4231 156.331 84.6855 146.479C76.9479 156.331 66.9329 175.282 65.0749 205.5L36.4219 203.739C39.084 160.442 56.2781 132.696 70.332 119.758L70.332 86.4511C57.0008 90.6847 40.6636 101.276 32.3219 124.745L26.5284 140.098L20.4065 137.655L26.1109 122.537L25.4208 122.292L19.7263 137.383L13.6044 134.94L19.2098 120.084L18.5198 119.839L12.9242 134.668L6.80222 132.225L12.3088 117.631L11.6187 117.386L6.12195 131.953L0 129.509L6.14693 113.421C23.4237 67.3345 63.2357 55.3438 84.6855 55.3437C97.7258 55.3436 125.14 47.7718 136.928 14.6057Z" fill="black"/>
</svg>
