<svg width="167" height="206" viewBox="0 0 167 206" fill="none" xmlns="http://www.w3.org/2000/svg">
<path d="M82.7685 46.6489C78.4001 46.6489 74.6557 45.0888 71.5354 41.9685C68.259 38.6921 66.6208 34.8697 66.6208 30.5013C66.6208 26.1328 68.181 22.3885 71.3013 19.2682C74.4216 15.9918 78.2441 14.3536 82.7685 14.3536C87.293 14.3536 91.1154 15.9918 94.2357 19.2682C97.356 22.3885 98.9161 26.1328 98.9161 30.5013C98.9161 34.8697 97.356 38.6921 94.2357 41.9685C90.9593 45.0888 87.137 46.6489 82.7685 46.6489Z" fill="black"/>
<path d="M134.15 124.745C125.808 101.276 109.471 90.6847 96.1397 86.4511V119.758C110.194 132.696 127.388 160.442 130.05 203.739L101.397 205.5C99.5388 175.282 89.5238 156.331 81.7863 146.479C74.0486 156.331 64.0337 175.282 62.1757 205.5L33.5227 203.739C36.1848 160.442 53.3789 132.696 67.4328 119.758V82.513C47.1358 78.3704 20.9984 65.0562 6.2807 33.238C5.71472 32.0144 5.16553 30.7632 4.6343 29.4844L0 17.2028L6.12196 14.7591L8.84082 21.9644L9.53091 21.7191L6.80221 14.4877L12.9242 12.044L15.7419 19.5114L16.432 19.2662L13.6043 11.7726L19.7263 9.32886L22.643 17.0585L23.3314 16.8138L17.909 2.4437L24.031 0L29.5424 14.6061C41.3308 47.7723 68.746 55.3436 81.7863 55.3437C103.236 55.3438 143.048 67.3346 160.325 113.421L166.472 129.51L160.35 131.954L154.853 117.386L154.163 117.631L159.669 132.225L153.548 134.669L147.952 119.839L147.262 120.084L152.867 134.94L146.745 137.384L141.051 122.292L140.361 122.537L146.066 137.655L139.944 140.099L134.15 124.745Z" fill="black"/>
</svg>
