<svg width="208" height="205" viewBox="0 0 208 205" fill="none" xmlns="http://www.w3.org/2000/svg">
<path d="M102.54 34.6359C107.225 34.6359 111.241 32.9627 114.588 29.6163C118.101 26.1025 119.858 22.003 119.858 17.318C119.858 12.6329 118.185 8.61716 114.839 5.27069C111.492 1.7569 107.393 0 102.54 0C97.688 0 93.5886 1.7569 90.2421 5.27069C86.8956 8.61716 85.2224 12.6329 85.2224 17.318C85.2224 22.003 86.8956 26.1025 90.2421 29.6163C93.7559 32.9627 97.8553 34.6359 102.54 34.6359Z" fill="black"/>
<path d="M181.671 1.53573L171.634 17.0434C156.286 39.0502 136.543 43.1791 119.4 43.8741C117.947 43.933 116.513 43.9672 115.102 43.9856C112.844 44.015 110.644 44.0038 108.522 43.9881L107.368 43.9793C106.078 43.9693 104.819 43.9601 103.593 43.9601C102.661 43.9601 101.707 43.9655 100.735 43.9724L99.2848 43.9834C79.8435 44.1347 53.5667 44.3392 34.5629 16.0617L25.224 1.94522L19.4031 5.9569L28.6963 20.0044L28.0452 20.442L18.7562 6.40097L12.9353 10.4127L22.1786 24.3847L21.5262 24.8231L12.2886 10.8598L6.46766 14.8714L15.6596 28.7657L15.0078 29.2038L5.82091 15.317L0 19.3287L10.2962 34.6633C34.1175 68.8241 66.8066 74.1208 88.1997 74.7672L88.1997 114.235C87.591 115.015 87.0702 115.731 86.6423 116.329C85.109 118.472 83.446 121.047 81.8967 123.447C81.5428 123.995 81.1922 124.538 80.8531 125.06C76.8773 131.184 72.8015 137.109 67.9142 141.842C63.1591 146.447 58.3245 149.237 52.9602 150.051C47.6759 150.852 39.8107 150.049 28.3595 143.598L13.2484 170.422C29.1208 179.364 43.9105 182.563 57.5768 180.49C71.1633 178.429 81.5768 171.468 89.3317 163.958C96.1157 157.389 101.373 149.891 105.285 143.95C113.288 155.036 122.766 174.756 124.625 205L155.355 203.11C152.5 156.676 134.06 126.92 118.987 113.043V74.7664C140.704 74.1098 173.898 68.5512 197.803 32.9815L207.069 18.6652L201.208 14.7121L191.935 29.0385L191.283 28.6002L200.556 14.2726L194.696 10.3195L185.416 24.6572L184.764 24.2195L194.044 9.88146L188.184 5.92835L178.897 20.2765L178.245 19.8382L187.532 5.48885L181.671 1.53573Z" fill="black"/>
</svg>
