<svg width="164" height="260" viewBox="0 0 164 260" fill="none" xmlns="http://www.w3.org/2000/svg">
<path d="M81.369 99.0218C85.7937 99.0218 89.5863 97.439 92.7468 94.2733C96.0653 90.9494 97.7246 87.0714 97.7246 82.6395C97.7246 78.2075 96.1444 74.4087 92.9839 71.243C89.8234 67.9191 85.9517 66.2571 81.369 66.2571C76.7863 66.2571 72.9147 67.9191 69.7542 71.243C66.5937 74.4087 65.0134 78.2075 65.0134 82.6395C65.0134 87.0714 66.5937 90.9494 69.7542 94.2733C73.0727 97.439 76.9443 99.0218 81.369 99.0218Z" fill="black"/>
<path fill-rule="evenodd" clip-rule="evenodd" d="M100.631 29.6107L84.544 28.973L84.6814 22.2869" fill="black"/>
<path d="M99.085 14.6794L99.0193 15.4217L84.8342 14.8593L84.6968 21.5454L98.4286 22.0898L98.3631 22.8292L84.6814 22.2869L84.544 28.973L100.631 29.6107C108.148 31.0103 117.526 35.3933 124.628 42.5559C132.07 50.0615 136.562 60.048 134.348 72.9087C130.075 87.0382 121.108 95.4462 111.091 100.602C100.543 106.031 89.0558 107.661 81.9997 107.661C74.6323 107.661 62.2078 106.153 51.2832 100.812C40.8274 95.7 32.4061 87.528 29.7718 73.5743C27.2831 60.3912 31.8016 50.1894 39.3722 42.5544C46.4228 35.444 55.7151 31.0728 63.2039 29.6403L80.0378 28.973L79.9003 22.2869L65.6385 22.8522L65.573 22.1128L79.885 21.5454L79.7475 14.8593L64.9823 15.4447L64.9165 14.7023L79.7322 14.115L79.5947 7.42893L64.3259 8.03425L64.2602 7.29338L79.5794 6.68608L79.4419 0L63.6696 0.625286C48.8451 1.94298 31.5128 9.15134 18.7417 22.031C5.51377 35.3713 -3.33658 54.9458 1.20198 78.986C5.94174 104.092 21.9736 118.891 38.5288 126.986C48.3863 131.805 58.6417 134.395 67.4614 135.68V173.011C53.2265 186.138 35.811 214.287 33.1146 258.213L62.1366 260C64.0185 229.343 74.1624 210.116 81.9997 200.121C89.8369 210.116 99.9809 229.343 101.863 260L130.885 258.213C128.188 214.286 110.773 186.137 96.538 173.011L96.538 135.546C105.107 134.145 114.877 131.397 124.38 126.506C140.313 118.306 155.675 103.926 162.48 80.322L162.67 79.6622L162.798 78.9874C167.337 54.9472 158.486 35.3727 145.258 22.0324C132.487 9.15282 115.159 1.9196 100.335 0.601918L100.332 0.602272L85.1399 2.14526e-05L85.0025 6.6861L99.7413 7.27036L99.6757 8.01127L84.987 7.42895L84.8496 14.115L99.085 14.6794Z" fill="black"/>
</svg>
