<svg width="325" height="191" viewBox="0 0 325 191" fill="none" xmlns="http://www.w3.org/2000/svg">
<path d="M322.217 116.341C320.516 118.043 318.474 118.894 316.091 118.894C313.709 118.894 311.624 118.043 309.838 116.341C308.136 114.554 307.285 112.47 307.285 110.087C307.285 107.705 308.136 105.663 309.838 103.961C311.539 102.175 313.624 101.281 316.091 101.281C318.559 101.281 320.643 102.175 322.345 103.961C324.047 105.663 324.897 107.705 324.897 110.087C324.897 112.47 324.004 114.554 322.217 116.341ZM309.2 190.831V127.019H322.983V190.831H309.2Z" fill="black"/>
<path d="M284.414 138.562C287.903 130.748 294.454 126.842 304.069 126.842V141.586C298.794 141.25 294.199 142.51 290.285 145.367C286.371 148.139 284.414 152.76 284.414 159.229V190.987H270.631V126.842H284.414V138.562Z" fill="black"/>
<path d="M251.242 144.445C255.156 146.487 258.219 149.295 260.431 152.869C262.643 156.442 263.749 160.569 263.749 165.248C263.749 172.566 261.154 178.649 255.964 183.499C250.774 188.349 244.435 190.773 236.948 190.773H198.66V101.436H234.14C241.457 101.436 247.626 103.818 252.646 108.583C257.751 113.262 260.303 119.133 260.303 126.195C260.303 133.938 257.283 140.021 251.242 144.445ZM234.14 115.219H213.337V138.702H234.14C237.373 138.702 240.096 137.596 242.308 135.384C244.52 133.087 245.626 130.279 245.626 126.961C245.626 123.642 244.52 120.877 242.308 118.665C240.096 116.368 237.373 115.219 234.14 115.219ZM236.948 176.99C240.351 176.99 243.201 175.799 245.499 173.416C247.881 170.949 249.072 167.971 249.072 164.483C249.072 160.994 247.881 158.059 245.499 155.676C243.201 153.209 240.351 151.975 236.948 151.975H213.337V176.99H236.948Z" fill="black"/>
<path d="M310.812 89.7065V0H324.799V89.7065H310.812Z" fill="black"/>
<path d="M290.654 25.9716H304.438V89.7844H290.654V80.5954C285.464 87.8275 278.019 91.4436 268.32 91.4436C259.556 91.4436 252.069 88.2104 245.858 81.744C239.647 75.1926 236.541 67.2372 236.541 57.878C236.541 48.4337 239.647 40.4784 245.858 34.012C252.069 27.5457 259.556 24.3125 268.32 24.3125C278.019 24.3125 285.464 27.886 290.654 35.033V25.9716ZM254.621 72.555C258.45 76.3837 263.257 78.2981 269.043 78.2981C274.828 78.2981 279.635 76.3837 283.464 72.555C287.293 68.6411 289.207 63.7488 289.207 57.878C289.207 52.0073 287.293 47.1575 283.464 43.3287C279.635 39.4149 274.828 37.4579 269.043 37.4579C263.257 37.4579 258.45 39.4149 254.621 43.3287C250.792 47.1575 248.878 52.0073 248.878 57.878C248.878 63.7488 250.792 68.6411 254.621 72.555Z" fill="black"/>
<path d="M255.55 0.154297V14.1931H230.408V89.4922H215.731V14.1931H190.461V0.154297H255.55Z" fill="black"/>
<path d="M88.056 51.224C83.0245 51.026 78.6409 52.6498 74.9052 56.0955C70.9827 59.7135 68.9223 64.0335 68.7238 69.0556C68.5254 74.0776 70.1523 78.453 73.6045 82.1816C77.0496 86.0896 81.3777 88.1462 86.5889 88.3513C91.8001 88.5565 96.2771 86.8465 100.02 83.2214C103.756 79.7757 105.723 75.5419 105.921 70.5198C106.119 65.4978 104.496 61.0327 101.051 57.1247C97.4192 53.389 93.0875 51.4221 88.056 51.224Z" fill="#2D96CB"/>
<path fill-rule="evenodd" clip-rule="evenodd" d="M16.1866 44.3196L38.6244 58.4549C50.0877 43.2213 67.6774 34.7907 85.7462 34.4372C89.0447 34.3726 92.3598 34.5776 95.6566 35.0596C103.753 36.2424 111.74 39.0969 119.106 43.7372C127.336 48.9224 133.883 55.7644 138.586 63.555L162.042 51.2296C155.229 39.4727 145.54 29.1453 133.235 21.3933C94.0759 -3.27582 42.7337 7.1481 16.1866 44.3196Z" fill="#2D96CB"/>
<path d="M124.344 117.424C127.031 113.174 127.814 108.573 126.692 103.621C125.514 98.4214 122.796 94.4803 118.538 91.7977C114.28 89.1152 109.67 88.3338 104.709 89.4535C99.5955 90.4774 95.647 93.1904 92.8634 97.5924C90.0798 101.994 89.325 106.719 90.5989 111.767C91.7208 116.719 94.4108 120.536 98.669 123.219C102.927 125.901 107.613 126.731 112.726 125.707C117.784 124.435 121.656 121.674 124.344 117.424Z" fill="#522DCB"/>
<path d="M143.246 73.0698L166.767 60.7109C177.838 86.1356 176.524 116.406 160.582 141.618C144.639 166.829 117.827 181.036 90.0697 182L91.1277 155.49C108.173 154.347 124.522 146.023 135.377 131.598C136.363 130.287 137.304 128.926 138.196 127.515C138.628 126.832 139.044 126.143 139.446 125.45C139.873 124.712 140.282 123.967 140.675 123.219C149.052 107.232 149.546 88.9204 143.246 73.0698Z" fill="#522DCB"/>
<path d="M48.3152 115.718C50.6591 120.167 54.2598 123.144 59.1174 124.65C64.2178 126.232 68.9963 125.853 73.4529 123.513C77.9095 121.174 80.8924 117.58 82.4015 112.732C84.0697 107.8 83.6901 103.03 81.2624 98.4229C78.8348 93.8158 75.1127 90.8009 70.096 89.3782C65.2385 87.8719 60.5814 88.2885 56.1248 90.628C51.6682 92.9675 48.6057 96.6032 46.9374 101.535C45.5121 106.542 45.9713 111.27 48.3152 115.718Z" fill="#872DCB"/>
<path d="M80.9441 154.706C71.8762 153.821 62.8713 150.866 54.6406 145.681C47.2747 141.04 41.2567 135.072 36.7036 128.286C34.8493 125.523 33.2375 122.624 31.8768 119.625C24.4226 103.192 24.4795 83.7164 33.325 66.8336L10.8871 52.6983C-11.3096 92.6104 1.35248 143.355 40.5115 168.025C52.8166 175.777 66.3251 180.063 79.8894 181.144L80.9441 154.706Z" fill="#872DCB"/>
</svg>
