<svg width="270" height="270" viewBox="0 0 270 270" fill="none" xmlns="http://www.w3.org/2000/svg">
<path d="M136.639 67.0718C128.831 66.7645 122.029 69.2842 116.232 74.6309C110.146 80.2451 106.948 86.9485 106.64 94.7414C106.333 102.534 108.857 109.324 114.214 115.109C119.56 121.174 126.276 124.365 134.362 124.683C142.448 125.001 149.396 122.348 155.203 116.723C161 111.376 164.052 104.806 164.36 97.0135C164.668 89.2207 162.149 82.2922 156.803 76.228C151.168 70.4312 144.446 67.3791 136.639 67.0718Z" fill="#2D96CB"/>
<path fill-rule="evenodd" clip-rule="evenodd" d="M25.1171 56.358L59.9344 78.2921C77.7224 54.6537 105.017 41.5717 133.054 41.0232C138.173 40.9229 143.317 41.2411 148.433 41.989C160.996 43.8244 173.389 48.2538 184.819 55.4543C197.591 63.5002 207.75 74.1171 215.048 86.206L251.444 67.0804C240.872 48.8369 225.838 32.8116 206.744 20.7828C145.98 -17.497 66.3109 -1.32192 25.1171 56.358Z" fill="#2D96CB"/>
<path d="M192.947 169.796C197.117 163.201 198.332 156.061 196.591 148.377C194.764 140.309 190.546 134.194 183.938 130.031C177.331 125.868 170.178 124.656 162.479 126.393C154.545 127.982 148.418 132.192 144.098 139.023C139.779 145.853 138.608 153.185 140.585 161.018C142.325 168.702 146.5 174.625 153.107 178.788C159.715 182.95 166.986 184.237 174.92 182.648C182.768 180.675 188.777 176.391 192.947 169.796Z" fill="#522DCB"/>
<path d="M222.279 100.97L258.776 81.7928C275.955 121.245 273.916 168.217 249.178 207.338C224.44 246.458 182.835 268.504 139.763 270L141.405 228.864C167.855 227.09 193.224 214.173 210.068 191.79C211.597 189.755 213.057 187.643 214.442 185.454C215.112 184.394 215.758 183.326 216.382 182.251C217.044 181.104 217.679 179.95 218.29 178.788C231.287 153.981 232.054 125.566 222.279 100.97Z" fill="#522DCB"/>
<path d="M74.9719 167.149C78.609 174.052 84.1963 178.672 91.7338 181.009C99.6482 183.463 107.063 182.875 113.979 179.245C120.894 175.615 125.523 170.038 127.864 162.514C130.453 154.861 129.864 147.46 126.097 140.311C122.33 133.162 116.554 128.484 108.77 126.276C101.232 123.939 94.0056 124.586 87.0902 128.216C80.1747 131.846 75.4226 137.488 72.834 145.141C70.6222 152.911 71.3348 160.247 74.9719 167.149Z" fill="#872DCB"/>
<path d="M125.603 227.647C111.532 226.274 97.559 221.688 84.7871 213.643C73.3573 206.442 64.019 197.181 56.9538 186.651C54.0765 182.363 51.5754 177.865 49.464 173.21C37.8971 147.712 37.9854 117.491 51.7111 91.2934L16.8938 69.3594C-17.5494 131.292 2.09868 210.034 62.8626 248.314C81.9568 260.343 102.918 266.995 123.966 268.672L125.603 227.647Z" fill="#872DCB"/>
</svg>
