<svg width="377" height="100" viewBox="0 0 377 100" fill="none" xmlns="http://www.w3.org/2000/svg">
<path d="M373.382 19.3041C371.708 20.9783 369.699 21.8153 367.355 21.8153C365.011 21.8153 362.96 20.9783 361.203 19.3041C359.528 17.5463 358.691 15.4955 358.691 13.1518C358.691 10.808 359.528 8.79911 361.203 7.12501C362.877 5.36719 364.927 4.48828 367.355 4.48828C369.782 4.48828 371.833 5.36719 373.507 7.12501C375.181 8.79911 376.018 10.808 376.018 13.1518C376.018 15.4955 375.14 17.5463 373.382 19.3041ZM360.575 92.5878V29.8087H374.135V92.5878H360.575Z" fill="black"/>
<path d="M336.191 41.1669C339.623 33.4801 346.068 29.6367 355.527 29.6367V44.1424C350.337 43.8118 345.817 45.0516 341.967 47.8618C338.116 50.5893 336.191 55.1353 336.191 61.4996V92.7426H322.631V29.6367H336.191V41.1669Z" fill="black"/>
<path d="M303.554 46.9537C307.405 48.9627 310.418 51.7249 312.594 55.2406C314.771 58.7562 315.859 62.8159 315.859 67.4197C315.859 74.6184 313.306 80.6033 308.2 85.3745C303.094 90.1457 296.858 92.5313 289.492 92.5313H251.824V4.64062H286.729C293.928 4.64062 299.997 6.98438 304.935 11.6719C309.958 16.2757 312.469 22.0514 312.469 28.9989C312.469 36.6161 309.497 42.601 303.554 46.9537ZM286.729 18.2009H266.263V41.3036H286.729C289.91 41.3036 292.589 40.2154 294.765 38.0391C296.941 35.7791 298.03 33.0168 298.03 29.7523C298.03 26.4877 296.941 23.7673 294.765 21.591C292.589 19.3309 289.91 18.2009 286.729 18.2009ZM289.492 78.9711C292.84 78.9711 295.644 77.7992 297.904 75.4554C300.248 73.028 301.42 70.0983 301.42 66.6664C301.42 63.2344 300.248 60.3466 297.904 58.0028C295.644 55.5754 292.84 54.3617 289.492 54.3617H266.263V78.9711H289.492Z" fill="black"/>
<path d="M231.896 92.7416V4.48828H245.656V92.7416H231.896Z" fill="black"/>
<path d="M212.063 30.0385H225.623V92.8176H212.063V83.7774C206.957 90.8924 199.633 94.4498 190.09 94.4498C181.468 94.4498 174.102 91.269 167.992 84.9074C161.881 78.4621 158.826 70.6356 158.826 61.428C158.826 52.1367 161.881 44.3103 167.992 37.9487C174.102 31.5871 181.468 28.4062 190.09 28.4062C199.633 28.4062 206.957 31.9219 212.063 38.9531V30.0385ZM176.613 75.8672C180.38 79.634 185.109 81.5174 190.801 81.5174C196.493 81.5174 201.223 79.634 204.989 75.8672C208.756 72.0168 210.639 67.2037 210.639 61.428C210.639 55.6524 208.756 50.8812 204.989 47.1144C201.223 43.264 196.493 41.3387 190.801 41.3387C185.109 41.3387 180.38 43.264 176.613 47.1144C172.846 50.8812 170.963 55.6524 170.963 61.428C170.963 67.2037 172.846 72.0168 176.613 75.8672Z" fill="black"/>
<path d="M177.529 4.64062V18.452H152.794V92.5313H138.355V18.452H113.494V4.64062H177.529Z" fill="black"/>
<path d="M50.6069 24.8414C47.7152 24.7276 45.1959 25.6608 43.049 27.6411C40.7947 29.7204 39.6105 32.2032 39.4965 35.0894C39.3824 37.9756 40.3174 40.4902 42.3014 42.6331C44.2814 44.8791 46.7688 46.061 49.7638 46.1789C52.7587 46.2968 55.3317 45.3141 57.4827 43.2307C59.6296 41.2504 60.7601 38.8172 60.8742 35.9309C60.9882 33.0447 60.0553 30.4786 58.0753 28.2326C55.988 26.0856 53.4985 24.9552 50.6069 24.8414Z" fill="#2D96CB"/>
<path fill-rule="evenodd" clip-rule="evenodd" d="M9.30263 20.8733L22.1979 28.9971C28.7861 20.2421 38.8951 15.3969 49.2794 15.1938C51.1751 15.1566 53.0804 15.2745 54.9751 15.5515C59.6281 16.2313 64.2183 17.8718 68.4516 20.5386C73.1819 23.5186 76.9444 27.4508 79.6474 31.9282L93.1275 24.8446C89.2119 18.0877 83.6437 12.1525 76.5717 7.69733C54.0666 -6.48035 24.5596 -0.4896 9.30263 20.8733Z" fill="#2D96CB"/>
<path d="M71.4619 62.8874C73.0065 60.4448 73.4564 57.8005 72.8116 54.9546C72.1347 51.9663 70.5726 49.7013 68.1253 48.1596C65.6781 46.6179 63.0288 46.1688 60.1775 46.8124C57.2388 47.4008 54.9696 48.96 53.3698 51.4899C51.77 54.0198 51.3362 56.7352 52.0684 59.6362C52.7131 62.4822 54.2591 64.676 56.7063 66.2177C59.1536 67.7594 61.8465 68.236 64.7852 67.6475C67.6917 66.9168 69.9173 65.3301 71.4619 62.8874Z" fill="#522DCB"/>
<path d="M82.3255 37.3964L95.843 30.2936C102.205 44.9055 101.451 62.3025 92.2883 76.7917C83.1261 91.2809 67.7168 99.4461 51.7642 100L52.3723 84.7646C62.1687 84.1072 71.5646 79.3235 77.8029 71.0332C78.3694 70.2797 78.9102 69.4975 79.4228 68.6868C79.6711 68.2942 79.9103 67.8985 80.1413 67.5002C80.3867 67.0757 80.622 66.648 80.848 66.2177C85.6618 57.03 85.9458 46.506 82.3255 37.3964Z" fill="#522DCB"/>
<path d="M27.7674 61.9071C29.1144 64.4636 31.1838 66.1747 33.9755 67.0403C36.9068 67.9493 39.653 67.7315 42.2143 66.387C44.7756 65.0424 46.4899 62.9769 47.3572 60.1905C48.3159 57.3561 48.0977 54.6149 46.7026 51.9672C45.3074 49.3194 43.1682 47.5867 40.2851 46.7691C37.4934 45.9034 34.8169 46.1428 32.2556 47.4874C29.6943 48.8319 27.9343 50.9214 26.9755 53.7559C26.1564 56.6336 26.4203 59.3507 27.7674 61.9071Z" fill="#872DCB"/>
<path d="M46.5196 84.3138C41.3082 83.805 36.1329 82.1068 31.4026 79.1269C27.1694 76.46 23.7108 73.03 21.094 69.13C20.0283 67.542 19.102 65.8761 18.32 64.152C14.036 54.7081 14.0687 43.5151 19.1523 33.8124L6.25696 25.6887C-6.49977 48.6267 0.77729 77.7905 23.2824 91.9682C30.3544 96.4233 38.1179 98.887 45.9135 99.508L46.5196 84.3138Z" fill="#872DCB"/>
</svg>
